<svg width="17px" height="23px" viewBox="0 0 17 23" version="1.1" xmlns="http://www.w3.org/2000/svg" xmlns:xlink="http://www.w3.org/1999/xlink">
      <g id="Menu" fill-rule="evenodd">
        <g id="Header-&amp;-menu" transform="translate(-1592.000000, -81.000000)" fill="#B82330">
          <g id="Group" transform="translate(1592.000000, 80.000000)">
            <g transform="translate(0.000000, 1.000000)" id="Icon-/-Ecom-/-Store-locator">
              <path d="M8.37847162,0 C12.9986904,0 16.7579609,3.693 16.7579609,8.233 C16.7579609,11.34 13.2999205,16.476 9.91922299,21.089 L9.91922299,21.089 L9.48060751,21.689 C9.22720785,22.04 8.81708711,22.249 8.37847162,22.249 C7.93985614,22.249 7.5297354,22.04 7.27633573,21.689 L7.27633573,21.689 L6.83772025,21.088 C3.45600506,16.476 0,11.341 0,8.233 C0,3.693 3.75825285,0 8.37847162,0 Z M8.37847162,2.656 C5.24913842,2.656 2.70292975,5.158 2.70292975,8.233 C2.70292975,10.597 6.43675853,15.962 8.37847162,18.642 C10.3212024,15.961 14.0540135,10.596 14.0540135,8.233 C14.0540135,5.158 11.5078048,2.656 8.37847162,2.656 Z M8.54648883,5.5904 C9.94578416,5.5904 11.0794678,6.7044 11.0794678,8.0784 C11.0794678,9.4534 9.94578416,10.5684 8.54648883,10.5684 C7.14821117,10.5684 6.01452753,9.4534 6.01452753,8.0784 C6.01452753,6.7044 7.14821117,5.5904 8.54648883,5.5904 Z"/>
            </g>
          </g>
        </g>
      </g>
    </svg>