<svg class="Icon Icon--account" width="16px" height="23px" viewBox="0 0 16 23" version="1.1" xmlns="http://www.w3.org/2000/svg" xmlns:xlink="http://www.w3.org/1999/xlink">
      <g id="Icon-/-Ecom-/-Account" stroke="none" stroke-width="1" fill="none" fill-rule="evenodd">
        <path d="M4.677,6.016 C4.677,4.163 6.184,2.657 8.036,2.657 C9.888,2.657 11.395,4.163 11.395,6.016 C11.395,7.868 9.888,9.374 8.036,9.374 C6.184,9.374 4.677,7.868 4.677,6.016 M12.207,10.34 C13.342,9.245 14.051,7.713 14.051,6.016 C14.051,2.699 11.352,0 8.036,0 C4.719,0 2.021,2.699 2.021,6.016 C2.021,7.725 2.74,9.266 3.889,10.362 C1.487,11.55 0,13.804 0,16.635 L0,21.177 C0,21.911 0.594,22.505 1.328,22.505 C2.061,22.505 2.656,21.911 2.656,21.177 L2.656,16.635 C2.656,13.286 5.572,12.097 8.069,12.097 C10.566,12.097 13.482,13.286 13.482,16.635 L13.482,21.177 C13.482,21.911 14.077,22.505 14.81,22.505 C15.544,22.505 16.138,21.911 16.138,21.177 L16.138,16.635 C16.138,13.787 14.634,11.522 12.207,10.34" fill="#B82330"/>
      </g>
    </svg>