<svg class="Icon Icon--search-desktop" width="22px" height="22px" viewBox="0 0 22 22" version="1.1" xmlns="http://www.w3.org/2000/svg" xmlns:xlink="http://www.w3.org/1999/xlink">
      <g id="Icon-/-Ecom-/-Search" stroke="none" stroke-width="1" fill="none" fill-rule="evenodd">
        <path d="M16.6476091,3.05914611 C12.9012104,-0.685984159 6.80685806,-0.685984159 3.05924273,3.05798064 C-0.686447033,6.80359245 -0.686447033,12.9001876 3.05927084,16.6470181 C4.88294312,18.469493 7.31944202,19.4557341 9.85345402,19.4557341 C11.7223776,19.4557341 13.558284,18.9060772 15.1364298,17.8637037 L15.4292566,17.6624985 L15.6016501,17.5393453 L19.4078388,21.3479981 C19.6687129,21.6088668 20.0165225,21.75 20.3782208,21.75 C20.739683,21.75 21.0877921,21.6090174 21.3484324,21.3493903 C21.8481345,20.848734 21.8814479,20.0581451 21.4484873,19.5197859 L21.3485732,19.4084815 L17.5411042,15.5998201 L17.6642904,15.4274944 C20.3756503,11.6345604 19.973461,6.38492876 16.6476091,3.05914611 Z M9.85345402,2.99272736 C11.6630222,2.99272736 13.4037785,3.6968276 14.7068589,4.99864704 C17.3821868,7.67518713 17.3821868,12.0298298 14.7068589,14.7051019 C12.0314825,17.3816906 7.67669352,17.3816906 5.00013287,14.7051857 C2.32347859,12.0298551 2.32347859,7.67511554 5.00000726,4.99991057 C6.30160032,3.69711091 8.04223174,2.99272736 9.85345402,2.99272736 Z" fill="#B82330" fill-rule="nonzero"/>
      </g>
    </svg>