<svg class="Icon Icon--cart" width="20px" height="22px" viewBox="0 0 20 22" version="1.1" xmlns="http://www.w3.org/2000/svg" xmlns:xlink="http://www.w3.org/1999/xlink">
      <g id="Icon-/-Ecom-/-Cart" stroke="none" stroke-width="1" fill="none" fill-rule="evenodd">
        <path d="M17.803,17.897 C17.803,18.931 16.961,19.773 15.927,19.773 L4.533,19.773 C3.498,19.773 2.657,18.931 2.657,17.897 L2.657,6.966 L4.847,6.966 L4.847,10.07 C4.847,10.803 5.442,11.398 6.176,11.398 C6.909,11.398 7.504,10.803 7.504,10.07 L7.504,6.966 L13.055,6.966 L13.055,10.07 C13.055,10.803 13.65,11.398 14.383,11.398 C15.116,11.398 15.711,10.803 15.711,10.07 L15.711,6.966 L17.803,6.966 L17.803,17.897 Z M7.504,3.169 C7.504,2.886 7.734,2.656 8.017,2.656 L12.542,2.656 C12.825,2.656 13.055,2.886 13.055,3.169 L13.055,4.31 L7.504,4.31 L7.504,3.169 Z M19.131,4.31 L15.711,4.31 L15.711,3.169 C15.711,1.421 14.289,0 12.542,0 L8.017,0 C6.27,0 4.847,1.421 4.847,3.169 L4.847,4.31 L1.328,4.31 C0.595,4.31 0,4.905 0,5.638 L0,17.897 C0,20.396 2.034,22.429 4.533,22.429 L15.927,22.429 C18.426,22.429 20.459,20.396 20.459,17.897 L20.459,5.638 C20.459,4.905 19.865,4.31 19.131,4.31 L19.131,4.31 Z" fill="#B82330"/>
      </g>
    </svg>